#N canvas -8 -8 1920 998 10;
#X obj 731 404 delwrite~ b1 5000;
#X obj 324 805 vd~ b1;
#X obj 300 468 phasor~;
#X obj 301 648 *~ -1;
#X obj 301 673 +~ 1;
#X obj 401 762 sig~ 1;
#X obj 466 770 cos~;
#X obj 402 795 -~;
#X obj 403 820 *~ 0.5;
#X obj 324 849 *~;
#X obj 378 973 dac~;
#X obj 332 735 samphold~;
#X obj 301 762 *~;
#X obj 333 707 sig~;
#X floatatom 410 447 5 0 0 0 - - -, f 5;
#X floatatom 110 307 10 0 0 0 - - -, f 10;
#X floatatom 301 448 5 0 0 0 - - -, f 5;
#X floatatom 241 233 5 0 0 0 - - -, f 5;
#X obj 241 254 t b f;
#X obj 711 785 vd~ b1;
#X obj 687 617 *~ -1;
#X obj 688 650 +~ 1;
#X obj 781 746 sig~ 1;
#X obj 845 753 cos~;
#X obj 782 777 -~;
#X obj 783 802 *~ 0.5;
#X obj 710 834 *~;
#X obj 722 715 samphold~;
#X obj 688 742 *~;
#X obj 723 687 sig~;
#X obj 708 530 +~ 0.5;
#X obj 708 552 wrap~;
#X obj 108 171 t b f;
#X obj 378 932 *~ 1;
#X obj 138 66 r windows_width @hv_param 100 30000 100;
#X obj 307 179 r transposition @hv_param -36 36 0;
#X obj 733 377 adc~;
#X obj 140 349 / 12;
#X obj 140 373 pow 2;
#X obj 141 394 - 1;
#X obj 108 439 *;
#X obj 77 361 pow -1;
#X obj 78 384 * 48000;
#X obj 410 421 / 48;
#X connect 1 0 9 0;
#X connect 2 0 3 0;
#X connect 2 0 6 0;
#X connect 2 0 11 1;
#X connect 2 0 30 0;
#X connect 3 0 4 0;
#X connect 4 0 12 0;
#X connect 5 0 7 0;
#X connect 6 0 7 1;
#X connect 7 0 8 0;
#X connect 8 0 9 1;
#X connect 9 0 33 0;
#X connect 11 0 12 1;
#X connect 12 0 1 0;
#X connect 13 0 11 0;
#X connect 14 0 29 0;
#X connect 14 0 13 0;
#X connect 15 0 41 0;
#X connect 15 0 43 0;
#X connect 16 0 2 0;
#X connect 17 0 18 0;
#X connect 18 0 15 0;
#X connect 18 1 37 0;
#X connect 19 0 26 0;
#X connect 20 0 21 0;
#X connect 21 0 28 0;
#X connect 22 0 24 0;
#X connect 23 0 24 1;
#X connect 24 0 25 0;
#X connect 25 0 26 1;
#X connect 26 0 33 0;
#X connect 27 0 28 1;
#X connect 28 0 19 0;
#X connect 29 0 27 0;
#X connect 30 0 31 0;
#X connect 31 0 20 0;
#X connect 31 0 27 1;
#X connect 31 0 23 0;
#X connect 32 0 17 0;
#X connect 32 1 15 0;
#X connect 33 0 10 0;
#X connect 33 0 10 1;
#X connect 34 0 32 0;
#X connect 35 0 17 0;
#X connect 36 0 0 0;
#X connect 36 1 0 0;
#X connect 37 0 38 0;
#X connect 38 0 39 0;
#X connect 39 0 40 0;
#X connect 40 0 16 0;
#X connect 41 0 42 0;
#X connect 42 0 40 1;
#X connect 43 0 14 0;
